<svg xmlns="http://www.w3.org/2000/svg" viewBox="0 0 120 120" fill="none"><defs><linearGradient id="b" x1="0" y1="0" x2="0" y2="1"><stop offset="0" stop-color="#4a4a52"/><stop offset="1" stop-color="#1c1c21"/></linearGradient><linearGradient id="d" x1="0" y1="0" x2="0" y2="1"><stop offset="0" stop-color="#2c2c33"/><stop offset="1" stop-color="#0e0e12"/></linearGradient><linearGradient id="h" x1="0" y1="0" x2="0" y2="1"><stop offset="0" stop-color="#fff" stop-opacity=".35"/><stop offset="1" stop-color="#fff" stop-opacity="0"/></linearGradient><radialGradient id="l" cx=".4" cy=".35" r=".7"><stop offset="0" stop-color="#6fb8ff"/><stop offset=".35" stop-color="#0a84ff"/><stop offset="1" stop-color="#021a3a"/></radialGradient><filter id="s" x="-20%" y="-20%" width="140%" height="160%"><feDropShadow dx="0" dy="6" stdDeviation="5" flood-color="#000" flood-opacity=".55"/></filter></defs><g filter="url(#s)"><path d="M16 84 22 46h76l6 38z" fill="url(#b)"/><path d="M16 84h88v6a4 4 0 0 1-4 4H20a4 4 0 0 1-4-4z" fill="url(#d)"/><path d="M22 46h76l1 4H21z" fill="url(#h)" opacity=".5"/><circle cx="40" cy="66" r="10" fill="#0b0b0e" stroke="#5b5b66" stroke-width="2"/><path d="M40 66l6-6" stroke="#0a84ff" stroke-width="3" stroke-linecap="round"/><circle cx="66" cy="66" r="10" fill="#0b0b0e" stroke="#5b5b66" stroke-width="2"/><path d="M66 66l-2-8" stroke="#0a84ff" stroke-width="3" stroke-linecap="round"/><g fill="#32d583"><rect x="84" y="58" width="4" height="4" rx="1"/><rect x="84" y="64" width="4" height="4" rx="1"/></g><rect x="84" y="70" width="4" height="4" rx="1" fill="#fdb022"/></g></svg>
